name ./resultDataOpenSim/trcMotMarkerGrf/sub09/grf-15-04.mot
datacolumns 19
datarows 27
range 0.96800000 1.07200000
endheader

                time	     ground_force_vx	     ground_force_vy	     ground_force_vz	     ground_force_px	     ground_force_py	     ground_force_pz	   l_ground_force_vx	   l_ground_force_vy	   l_ground_force_vz	   l_ground_force_px	   l_ground_force_py	   l_ground_force_pz	     ground_torque_x	     ground_torque_y	     ground_torque_z	   l_ground_torque_x	   l_ground_torque_y	   l_ground_torque_z	
          0.96800000	          0.00000000	          0.00000000	          0.00000000	          0.00000000	          0.00000000	          0.00000000	         22.80133447	        500.04496040	         -8.39129702	          0.11864422	         -0.10000000	          0.02119156	          0.00000000	          0.00000000	          0.00000000	          0.00000000	         -1.87094345	          0.00000000	
          0.97200000	          0.00000000	          0.00000000	          0.00000000	          0.00000000	          0.00000000	          0.00000000	         24.61972428	        499.89116244	        -11.70867521	          0.11985987	         -0.10000000	          0.02225849	          0.00000000	          0.00000000	          0.00000000	          0.00000000	         -2.12361460	          0.00000000	
          0.97600000	          0.00000000	          0.00000000	          0.00000000	          0.00000000	          0.00000000	          0.00000000	         26.67041168	        500.09546652	        -14.66926062	          0.12104712	         -0.10000000	          0.02329861	          0.00000000	          0.00000000	          0.00000000	          0.00000000	         -2.36698829	          0.00000000	
          0.98000000	          0.00000000	          0.00000000	          0.00000000	          0.00000000	          0.00000000	          0.00000000	         28.93754018	        500.77239947	        -17.20207558	          0.12217702	         -0.10000000	          0.02428085	          0.00000000	          0.00000000	          0.00000000	          0.00000000	         -2.59492766	          0.00000000	
          0.98400000	          0.00000000	          0.00000000	          0.00000000	          0.00000000	          0.00000000	          0.00000000	         31.36258789	        501.96874868	        -19.30107628	          0.12324250	         -0.10000000	          0.02519534	          0.00000000	          0.00000000	          0.00000000	          0.00000000	         -2.80165812	          0.00000000	
          0.98800000	          0.00000000	          0.00000000	          0.00000000	          0.00000000	          0.00000000	          0.00000000	         33.85976400	        503.60493268	        -21.00116589	          0.12424360	         -0.10000000	          0.02604404	          0.00000000	          0.00000000	          0.00000000	          0.00000000	         -2.98226801	          0.00000000	
          0.99200000	          0.00000000	          0.00000000	          0.00000000	          0.00000000	          0.00000000	          0.00000000	         36.35387520	        505.50112149	        -22.32281037	          0.12517597	         -0.10000000	          0.02683769	          0.00000000	          0.00000000	          0.00000000	          0.00000000	         -3.13285818	          0.00000000	
          0.99600000	          0.00000000	          0.00000000	          0.00000000	          0.00000000	          0.00000000	          0.00000000	         38.80896585	        507.47786740	        -23.24402823	          0.12603939	         -0.10000000	          0.02758120	          0.00000000	          0.00000000	          0.00000000	          0.00000000	         -3.25056383	          0.00000000	
          1.00000000	          0.00000000	          0.00000000	          0.00000000	          0.00000000	          0.00000000	          0.00000000	         41.22558555	        509.42874575	        -23.72132317	          0.12683165	         -0.10000000	          0.02827069	          0.00000000	          0.00000000	          0.00000000	          0.00000000	         -3.33380234	          0.00000000	
          1.00400000	          0.00000000	          0.00000000	          0.00000000	          0.00000000	          0.00000000	          0.00000000	         43.62029357	        511.31881215	        -23.73304425	          0.12754680	         -0.10000000	          0.02890765	          0.00000000	          0.00000000	          0.00000000	          0.00000000	         -3.38286793	          0.00000000	
          1.00800000	          0.00000000	          0.00000000	          0.00000000	          0.00000000	          0.00000000	          0.00000000	         46.00379352	        513.13984897	        -23.30680480	          0.12819257	         -0.10000000	          0.02950488	          0.00000000	          0.00000000	          0.00000000	          0.00000000	         -3.40056692	          0.00000000	
          1.01200000	          0.00000000	          0.00000000	          0.00000000	          0.00000000	          0.00000000	          0.00000000	         48.37005364	        514.87339715	        -22.51793997	          0.12879682	         -0.10000000	          0.03007578	          0.00000000	          0.00000000	          0.00000000	          0.00000000	         -3.39236045	          0.00000000	
          1.01600000	          0.00000000	          0.00000000	          0.00000000	          0.00000000	          0.00000000	          0.00000000	         50.71106637	        516.49298505	        -21.46998769	          0.12939193	         -0.10000000	          0.03062956	          0.00000000	          0.00000000	          0.00000000	          0.00000000	         -3.36569364	          0.00000000	
          1.02000000	          0.00000000	          0.00000000	          0.00000000	          0.00000000	          0.00000000	          0.00000000	         53.04530899	        517.98060764	        -20.26310135	          0.13000313	         -0.10000000	          0.03117279	          0.00000000	          0.00000000	          0.00000000	          0.00000000	         -3.32868693	          0.00000000	
          1.02400000	          0.00000000	          0.00000000	          0.00000000	          0.00000000	          0.00000000	          0.00000000	         55.43006725	        519.33854241	        -18.96233186	          0.13063829	         -0.10000000	          0.03170864	          0.00000000	          0.00000000	          0.00000000	          0.00000000	         -3.28876729	          0.00000000	
          1.02800000	          0.00000000	          0.00000000	          0.00000000	          0.00000000	          0.00000000	          0.00000000	         57.94572129	        520.62139824	        -17.59307165	          0.13129415	         -0.10000000	          0.03223665	          0.00000000	          0.00000000	          0.00000000	          0.00000000	         -3.25181252	          0.00000000	
          1.03200000	          0.00000000	          0.00000000	          0.00000000	          0.00000000	          0.00000000	          0.00000000	         60.66641698	        521.94611479	        -16.16581097	          0.13194890	         -0.10000000	          0.03274998	          0.00000000	          0.00000000	          0.00000000	          0.00000000	         -3.22199622	          0.00000000	
          1.03600000	          0.00000000	          0.00000000	          0.00000000	          0.00000000	          0.00000000	          0.00000000	         63.64447248	        523.41557447	        -14.70376350	          0.13256277	         -0.10000000	          0.03323592	          0.00000000	          0.00000000	          0.00000000	          0.00000000	         -3.20212004	          0.00000000	
          1.04000000	          0.00000000	          0.00000000	          0.00000000	          0.00000000	          0.00000000	          0.00000000	         66.90709387	        525.02696564	        -13.25502758	          0.13309700	         -0.10000000	          0.03368786	          0.00000000	          0.00000000	          0.00000000	          0.00000000	         -3.19407817	          0.00000000	
          1.04400000	          0.00000000	          0.00000000	          0.00000000	          0.00000000	          0.00000000	          0.00000000	         70.43981719	        526.67288667	        -11.88505684	          0.13355794	         -0.10000000	          0.03411945	          0.00000000	          0.00000000	          0.00000000	          0.00000000	         -3.19917050	          0.00000000	
          1.04800000	          0.00000000	          0.00000000	          0.00000000	          0.00000000	          0.00000000	          0.00000000	         74.17561168	        528.22690632	        -10.65639254	          0.13399254	         -0.10000000	          0.03456197	          0.00000000	          0.00000000	          0.00000000	          0.00000000	         -3.21817165	          0.00000000	
          1.05200000	          0.00000000	          0.00000000	          0.00000000	          0.00000000	          0.00000000	          0.00000000	         78.02311299	        529.61707646	         -9.61181883	          0.13444229	         -0.10000000	          0.03504702	          0.00000000	          0.00000000	          0.00000000	          0.00000000	         -3.25129503	          0.00000000	
          1.05600000	          0.00000000	          0.00000000	          0.00000000	          0.00000000	          0.00000000	          0.00000000	         81.90746366	        530.82020549	         -8.77400657	          0.13493296	         -0.10000000	          0.03559801	          0.00000000	          0.00000000	          0.00000000	          0.00000000	         -3.29826914	          0.00000000	
          1.06000000	          0.00000000	          0.00000000	          0.00000000	          0.00000000	          0.00000000	          0.00000000	         85.78474345	        531.82095302	         -8.15925556	          0.13549969	         -0.10000000	          0.03623114	          0.00000000	          0.00000000	          0.00000000	          0.00000000	         -3.35857442	          0.00000000	
          1.06400000	          0.00000000	          0.00000000	          0.00000000	          0.00000000	          0.00000000	          0.00000000	         89.62678001	        532.59460493	         -7.78636198	          0.13618493	         -0.10000000	          0.03695128	          0.00000000	          0.00000000	          0.00000000	          0.00000000	         -3.43165550	          0.00000000	
          1.06800000	          0.00000000	          0.00000000	          0.00000000	          0.00000000	          0.00000000	          0.00000000	         93.39228778	        533.08867614	         -7.66573842	          0.13701445	         -0.10000000	          0.03774997	          0.00000000	          0.00000000	          0.00000000	          0.00000000	         -3.51685810	          0.00000000	
          1.07200000	          0.00000000	          0.00000000	          0.00000000	          0.00000000	          0.00000000	          0.00000000	         97.01470746	        533.18528804	         -7.77522948	          0.13799557	         -0.10000000	          0.03861446	          0.00000000	          0.00000000	          0.00000000	          0.00000000	         -3.61299363	          0.00000000	
